<svg xmlns="http://www.w3.org/2000/svg" version="1.1" xmlns:xlink="http://www.w3.org/1999/xlink" xmlns:svgjs="http://svgjs.dev/svgjs" width="1440" height="560" preserveAspectRatio="none" viewBox="0 0 1440 560"><g mask="url(&quot;#SvgjsMask1074&quot;)" fill="none"><rect width="1440" height="560" x="0" y="0" fill="url(&quot;#SvgjsLinearGradient1075&quot;)"></rect><path d="M1092.7402526343612 112.39183666507085L1035.4778320112534 30.612624790951003 1010.9610407602414 169.65425728817863z" fill="rgba(28, 83, 142, 0.4)" class="triangle-float1"></path><path d="M1106.509,538.351C1151.487,539.699,1191.216,508.989,1211.544,468.844C1230.109,432.181,1221.194,389.421,1199.638,354.434C1179.267,321.37,1145.345,298.375,1106.509,298.367C1067.659,298.359,1032.689,320.723,1013.311,354.395C993.981,387.983,994.33,428.287,1011.844,462.857C1031.394,501.445,1063.27,537.055,1106.509,538.351" fill="rgba(28, 83, 142, 0.4)" class="triangle-float3"></path><path d="M1233.134,325.31C1256.251,325.659,1280.555,319.316,1292.483,299.511C1304.722,279.19,1300.853,253.535,1288.594,233.226C1276.769,213.635,1256.012,200.684,1233.134,201.186C1211.045,201.67,1192.862,216.483,1181.732,235.569C1170.503,254.823,1165.735,278.422,1176.813,297.763C1187.946,317.2,1210.737,324.971,1233.134,325.31" fill="rgba(28, 83, 142, 0.4)" class="triangle-float3"></path><path d="M-4.529300578661176 220.6631583484667L-12.08183358744245 306.98900565716815 121.1832038800004 275.15488151598936z" fill="rgba(28, 83, 142, 0.4)" class="triangle-float1"></path><path d="M969.5892729963977 335.7126602120854L893.5269855600485 491.2869816271332 1044.6998437605635 483.364347840974z" fill="rgba(28, 83, 142, 0.4)" class="triangle-float3"></path><path d="M702.8194118757799 380.0329632373373L675.1044032877769 249.64409934976445 544.7155394002041 277.3591079377674 572.4305479882071 407.7479718253403z" fill="rgba(28, 83, 142, 0.4)" class="triangle-float1"></path></g><defs><mask id="SvgjsMask1074"><rect width="1440" height="560" fill="#ffffff"></rect></mask><linearGradient x1="15.28%" y1="-39.29%" x2="84.72%" y2="139.29%" gradientUnits="userSpaceOnUse" id="SvgjsLinearGradient1075"><stop stop-color="#0e2a47" offset="0"></stop><stop stop-color="#00459e" offset="1"></stop></linearGradient><style>
                @keyframes float1 {
                    0%{transform: translate(0, 0)}
                    50%{transform: translate(-10px, 0)}
                    100%{transform: translate(0, 0)}
                }

                .triangle-float1 {
                    animation: float1 5s infinite;
                }

                @keyframes float2 {
                    0%{transform: translate(0, 0)}
                    50%{transform: translate(-5px, -5px)}
                    100%{transform: translate(0, 0)}
                }

                .triangle-float2 {
                    animation: float2 4s infinite;
                }

                @keyframes float3 {
                    0%{transform: translate(0, 0)}
                    50%{transform: translate(0, -10px)}
                    100%{transform: translate(0, 0)}
                }

                .triangle-float3 {
                    animation: float3 6s infinite;
                }
            </style></defs></svg>