<svg xmlns="http://www.w3.org/2000/svg" version="1.1" xmlns:xlink="http://www.w3.org/1999/xlink" xmlns:svgjs="http://svgjs.dev/svgjs" width="1440" height="560" preserveAspectRatio="none" viewBox="0 0 1440 560"><g mask="url(&quot;#SvgjsMask1590&quot;)" fill="none"><rect width="1440" height="560" x="0" y="0" fill="url(&quot;#SvgjsLinearGradient1591&quot;)"></rect><path d="M1065.10255023954 59.76239354020478L916.665477599091 5.73571743747123 862.6388014963574 154.17279007792035 1011.0758741368065 208.1994661806539z" fill="rgba(255, 255, 255, 0.33)" class="triangle-float1"></path><path d="M21.439025141665624 107.76233653788694L-62.377153293741216 271.8740140807204 98.61127982477596 266.2521741169511z" fill="rgba(255, 255, 255, 0.33)" class="triangle-float3"></path><path d="M796.4286723565956 225.62866385576285L726.4190251815229 178.40656057504304 690.5906938479795 307.0320829780119z" fill="rgba(255, 255, 255, 0.33)" class="triangle-float3"></path><path d="M598.935,283.652C640.78,286.324,691.137,289.444,712.289,253.24C733.524,216.895,704.497,175.454,683.448,139.001C662.402,102.554,640.92,59.853,598.935,56.932C553.414,53.765,511.513,84.738,491.259,125.628C472.893,162.707,484.854,206.013,508.154,240.207C528.401,269.921,563.052,281.361,598.935,283.652" fill="rgba(255, 255, 255, 0.33)" class="triangle-float3"></path><path d="M10.61607205187483 543.3089350099268L128.660134397818 645.9230728852069 113.23020992715499 425.2648726639836z" fill="rgba(255, 255, 255, 0.33)" class="triangle-float1"></path><path d="M1505.4259981372156 182.2917528462929L1464.0331581727773 74.45971809831427 1356.2011234247989 115.85255806275251 1397.593963389237 223.68459281073112z" fill="rgba(255, 255, 255, 0.33)" class="triangle-float1"></path></g><defs><mask id="SvgjsMask1590"><rect width="1440" height="560" fill="#ffffff"></rect></mask><linearGradient x1="15.28%" y1="-39.29%" x2="84.72%" y2="139.29%" gradientUnits="userSpaceOnUse" id="SvgjsLinearGradient1591"><stop stop-color="rgba(204, 68, 0, 1)" offset="0"></stop><stop stop-color="rgba(255, 105, 5, 1)" offset="1"></stop></linearGradient><style>
                @keyframes float1 {
                    0%{transform: translate(0, 0)}
                    50%{transform: translate(-10px, 0)}
                    100%{transform: translate(0, 0)}
                }

                .triangle-float1 {
                    animation: float1 5s infinite;
                }

                @keyframes float2 {
                    0%{transform: translate(0, 0)}
                    50%{transform: translate(-5px, -5px)}
                    100%{transform: translate(0, 0)}
                }

                .triangle-float2 {
                    animation: float2 4s infinite;
                }

                @keyframes float3 {
                    0%{transform: translate(0, 0)}
                    50%{transform: translate(0, -10px)}
                    100%{transform: translate(0, 0)}
                }

                .triangle-float3 {
                    animation: float3 6s infinite;
                }
            </style></defs></svg>