<svg xmlns="http://www.w3.org/2000/svg" version="1.1" xmlns:xlink="http://www.w3.org/1999/xlink" xmlns:svgjs="http://svgjs.dev/svgjs" width="1440" height="560" preserveAspectRatio="none" viewBox="0 0 1440 560"><g mask="url(&quot;#SvgjsMask1002&quot;)" fill="none"><path d="M21.27 140C21.27 125.96 2.54 128.73 0 112C-8.09 58.73 -31.11 24.89 0 0C38.89 -31.11 70 0 140 0C202.63 0 203.07 -2.44 265.26 0C273.07 0.31 272.33 5.49 280 5.49C299.7 5.49 299.87 0.79 320 0C369.87 -1.96 370 0 420 0C441.88 0 450.72 -15.02 463.75 0C511.44 54.98 552.42 79.1 541.45 140C530.55 200.53 482.28 193.49 420 242.86C393.98 263.49 364.85 258.66 364.85 280C364.85 305.23 386.57 336 420 336C484.14 336 490 308 560 280C560 280 560 280 560 280C630 218.94 629.01 217.65 700 157.87C712.13 147.65 723.31 154.58 726.25 140C739.22 75.65 699.73 39.5 731.82 0C756.6 -30.5 785.91 0 840 0C907.36 0 954.07 -33.35 974.72 0C997.41 36.65 940.39 68.08 926.67 140C913.68 208.08 904.27 218.25 921.29 280C930.94 315.02 950.09 333.53 980 333.53C1011.37 333.53 1013.63 308.59 1043.86 280C1083.63 242.37 1074.25 228.83 1120 201.09C1182.32 163.3 1187.8 160.04 1260 148.94C1327.8 138.52 1334.86 161.97 1400 158.06C1409.38 157.5 1409.03 149.24 1409.03 140C1409.03 128.55 1411.23 117.18 1400 116.67C1336.72 113.8 1326.86 144.73 1260 133.23C1186.86 120.65 1189.07 102.74 1120 68.51C1054.67 36.13 991.2 18.19 991.2 0C991.2 -16.06 1055.6 0 1120 0C1190 0 1190 0 1260 0C1330 0 1330 0 1400 0C1443.75 0 1445.32 -7.23 1487.5 0C1515.32 4.77 1531.28 0.74 1540 24C1557.53 70.74 1540 82 1540 140C1540 210 1540 210 1540 280C1540 350 1540 350 1540 420C1540 490 1570.09 520.09 1540 560C1517.31 590.09 1483.38 570.34 1434.43 560C1413.38 555.55 1421.33 535.04 1400 530.42C1334.11 516.15 1326.89 512.71 1260 522.22C1222.89 527.5 1228.35 550.19 1192 560C1158.35 569.08 1156 560 1120 560C1090 560 1087.13 569.86 1060 560C1017.13 544.41 1019.6 509.09 980 509.09C942.26 509.09 945.96 545.23 905.33 560C875.96 570.68 872.66 560 840 560C770 560 770 560 700 560C630 560 630 560 560 560C490 560 490 560 420 560C396 560 394.03 567.8 372 560C324.03 543.03 325.71 510.46 280 510.46C236.19 510.46 238.75 543.8 192.97 560C168.75 568.57 166.49 560 140 560C70 560 50 580 0 560C-20 552 -20 511.78 0 504C50 484.56 84.71 530.25 140 505.56C178.77 488.25 188.13 457.6 188.13 420C188.13 397.12 168.13 390.4 140 384.6C74.07 371.01 40.63 411.59 0 381.23C-29.37 359.29 0 330.62 0 280C0 224.24 -8.07 221.55 0 168.47C2.57 151.55 21.27 154.19 21.27 140" stroke="rgba(255, 87, 51, 1)" stroke-width="2"></path><path d="M65.57 140C65.57 96.7 21.93 100.49 0 53.67C-10.86 30.49 -17.69 9.14 0 0C34.24 -17.69 54.2 -7.95 103.87 0C124.2 3.25 120.48 14.18 140 22.4C208.54 51.24 208.67 69.18 280 74.12C348.67 78.88 361.63 24.25 420 41.79C471.27 57.19 499.28 94.65 499.28 140C499.28 177.33 461.56 176.1 420 207.14C367.83 246.1 311.82 238.13 311.82 280C311.82 329.49 359.33 345.11 420 389.85C454.26 415.11 463.78 399.62 501.67 420C533.78 437.27 533.97 465.16 560 465.16C579.8 465.16 581.67 445.29 593.33 420C624.36 352.71 609.46 343.17 645.37 280C662.8 249.34 670.85 253.79 700 232.34C765.98 183.79 813.39 200.9 835.63 140C855.82 84.73 783.26 51.08 784.85 0C785.44 -18.92 812.42 0 840 0C874.34 0 908.17 -21.54 908.68 0C909.83 48.46 854.77 66.96 843.33 140C832.85 206.96 832.3 221.67 864.84 280C900.64 344.17 919.31 336.77 980 385C1007.4 406.77 1041.03 402.3 1041.03 420C1041.03 437.83 1010.72 438.39 980 456.06C910.21 496.21 910.02 495.9 840 535.65C818.48 547.87 820.58 555.88 796.92 560C750.58 568.06 748.46 560 700 560C630 560 630 560 560 560C516.76 560 508.61 576.89 473.53 560C438.61 543.19 456.12 511.88 420 492.59C359.35 460.19 345.09 483.29 280 456.62C256.5 446.99 263.13 436.29 242.81 420C193.13 380.16 197.68 366.37 140 344.37C76.27 320.06 52.4 351.47 0 327.38C-17.6 319.29 0 303.69 0 280C0 253.9 -10.58 250.39 0 227.8C22.21 180.39 65.57 183.77 65.57 140" stroke="rgba(255, 87, 51, 1)" stroke-width="2"></path><path d="M1260 76.77C1194.57 76.77 1127.78 20.58 1127.78 0C1127.78 -17.8 1193.89 0 1260 0C1321.03 0 1382.05 -17.6 1382.05 0C1382.05 20.79 1321.7 76.77 1260 76.77" stroke="rgba(255, 87, 51, 1)" stroke-width="2"></path><path d="M1465.48 140C1493.81 100.14 1517.59 74 1540 74C1554.85 74 1540 107 1540 140C1540 210 1540 210 1540 280C1540 350 1540 350 1540 420C1540 490 1557.93 507.93 1540 560C1533.83 577.93 1511.74 571.23 1491.8 560C1441.74 531.8 1453.59 502.71 1400 481.13C1337.69 456.04 1325.6 485.92 1260 466.67C1221.42 455.35 1218.7 450.3 1191.63 420C1148.7 371.96 1154.42 365.79 1120 310C1111.24 295.79 1105.26 293.84 1105.26 280C1105.26 271.21 1110.18 268.32 1120 264.73C1187.55 240.02 1190.45 221.85 1260 223.4C1330.45 224.97 1348.38 291.92 1400 270.97C1451.12 250.22 1423.81 198.63 1465.48 140" stroke="rgba(255, 87, 51, 1)" stroke-width="2"></path><path d="M109.87 140C124.75 116.08 116.77 92.4 140 92.4C197.95 92.4 251.77 94.33 272.22 140C293.77 188.13 265.57 228.39 224 280C199.46 310.46 182.46 304.14 140 304.14C82.12 304.14 29.66 314.46 23.33 280C14.59 232.39 66.41 209.88 109.87 140" stroke="rgba(255, 87, 51, 1)" stroke-width="2"></path><path d="M286.09 140C286.09 120.37 359.67 94.03 420 94.03C445.18 94.03 457.11 118.77 457.11 140C457.11 157.47 442.34 171.43 420 171.43C356.83 171.43 286.09 159.07 286.09 140" stroke="rgba(255, 87, 51, 1)" stroke-width="2"></path><path d="M840 5.6C838.83 5.6 837.88 2.07 837.88 0C837.88 -0.73 838.94 0 840 0C841.32 0 842.64 -0.84 842.64 0C842.64 1.96 841.21 5.6 840 5.6" stroke="rgba(255, 87, 51, 1)" stroke-width="2"></path><path d="M1260 20.32C1242.68 20.32 1225 5.45 1225 0C1225 -4.71 1242.5 0 1260 0C1276.15 0 1292.31 -4.66 1292.31 0C1292.31 5.5 1276.33 20.32 1260 20.32" stroke="rgba(255, 87, 51, 1)" stroke-width="2"></path><path d="M1521.94 140C1521.94 129.67 1534.57 124 1540 124C1543.6 124 1540 132 1540 140C1540 165.45 1544.38 190.91 1540 190.91C1535.35 190.91 1521.94 163.13 1521.94 140" stroke="rgba(255, 87, 51, 1)" stroke-width="2"></path><path d="M676.67 420C676.67 390.18 680.11 358.75 700 358.75C729.47 358.75 775.38 392.55 775.38 420C775.38 444.48 731.62 462.61 700 462.61C682.26 462.61 676.67 442.11 676.67 420" stroke="rgba(255, 87, 51, 1)" stroke-width="2"></path><path d="M1316 420C1316 409.56 1361.34 391.03 1400 391.03C1417.83 391.03 1428.97 408.43 1428.97 420C1428.97 428.83 1415.22 431.83 1400 431.83C1358.74 431.83 1316 429.96 1316 420" stroke="rgba(255, 87, 51, 1)" stroke-width="2"></path></g><defs><mask id="SvgjsMask1002"><rect width="1440" height="560" fill="#ffffff"></rect></mask></defs></svg>