<svg xmlns="http://www.w3.org/2000/svg" version="1.1" xmlns:xlink="http://www.w3.org/1999/xlink" xmlns:svgjs="http://svgjs.dev/svgjs" width="1440" height="560" preserveAspectRatio="none" viewBox="0 0 1440 560"><g mask="url(&quot;#SvgjsMask1000&quot;)" fill="none"><path d="M280 103.7C262.81 103.7 235.45 121.43 235.45 140C235.45 159.18 263.06 179.2 280 179.2C291.78 179.2 292.89 159.52 292.89 140C292.89 121.77 291.53 103.7 280 103.7" stroke="rgba(51, 121, 194, 0.58)" stroke-width="2"></path><path d="M666.06 0C703.69 40.1 706.4 75.54 691.38 140C673.78 215.54 598.17 227.45 600.83 280C602.48 312.7 654.6 310.51 700 310.51C718.02 310.51 724.49 299.38 727.67 280C738.49 214.13 724.36 209.82 728 140C731.66 69.82 709.21 41.31 742.26 0C765.21 -28.69 791.13 0 840 0C910 0 910 0 980 0C1050 0 1050 0 1120 0C1190 0 1190 0 1260 0C1330 0 1330 0 1400 0C1470 0 1505 -35 1540 0C1575 35 1540 70 1540 140C1540 210 1540 210 1540 280C1540 327.27 1566.89 346.58 1540 374.55C1499.58 416.58 1466.47 391.44 1405.38 420C1396.47 424.16 1401.85 429.82 1400 440C1389.16 499.82 1415.24 529.79 1380 560C1345.24 589.79 1320 560 1260 560C1195.39 560 1193.62 564.49 1130.77 560C1123.62 559.49 1125.1 550 1120 550C1115.43 550 1117.81 559.54 1111.43 560C1047.81 564.54 1045.72 560 980 560C910 560 910 560 840 560C770 560 770 560 700 560C630 560 630 560 560 560C490 560 490 560 420 560C383.34 560 346.67 581.28 346.67 560C346.67 517.11 378.92 491.17 420 431.67C427.25 421.17 443.33 424.09 443.33 420C443.33 416.29 430.52 421.3 420 416.06C348.86 380.6 351.85 373.51 280 338.6C211.85 305.48 210 309.3 140 280C140 280 140 280 140 280C70 273.63 36.74 304.01 0 267.27C-33.26 234.01 0 203.63 0 140C0 70 -35 35 0 0C35 -35 70 0 140 0C210 0 210 0 280 0C350 0 350 0 420 0C490 0 490 0 560 0C613.03 0 638 -29.9 666.06 0" stroke="rgba(51, 121, 194, 0.58)" stroke-width="2"></path><path d="M1260 116.23C1239.07 116.23 1216.55 129.73 1216.55 140C1216.55 149.59 1238.7 155.95 1260 155.95C1276.58 155.95 1292.31 149.4 1292.31 140C1292.31 129.54 1276.95 116.23 1260 116.23" stroke="rgba(51, 121, 194, 0.58)" stroke-width="2"></path><path d="M1120 217.78C1091.21 217.78 1047.74 252.47 1047.74 280C1047.74 303.95 1088.95 320.73 1120 320.73C1138.1 320.73 1146.05 301.49 1146.05 280C1146.05 250.02 1140.37 217.78 1120 217.78" stroke="rgba(51, 121, 194, 0.58)" stroke-width="2"></path><path d="M0 286.09C35.79 250.3 99.43 246.74 140 280C181.09 313.69 163.33 350.92 163.33 420C163.33 455.92 151.34 454.89 140 490C128.73 524.89 144.93 546.59 118.12 560C74.93 581.59 27.03 592.03 0 560C-32.03 522.03 0 490 0 420C0 353.04 -34.21 320.3 0 286.09" stroke="rgba(51, 121, 194, 0.58)" stroke-width="2"></path><path d="M1436.52 560C1436.52 544.9 1505.05 503.33 1540 503.33C1556.79 503.33 1558.31 549.97 1540 560C1506.57 578.31 1436.52 573.24 1436.52 560" stroke="rgba(51, 121, 194, 0.58)" stroke-width="2"></path><path d="M140 115.44C79.96 143.88 36.86 156.66 0 126.27C-33.14 98.94 -33.2 29.94 0 0C36.8 -33.2 70 0 140 0C203.27 0 266.54 -24.52 266.54 0C266.54 33.2 213.23 80.75 140 115.44" stroke="rgba(51, 121, 194, 0.58)" stroke-width="2"></path><path d="M338.95 140C367.69 81.84 374.88 82.89 420 35.59C441.65 12.89 443.08 7.48 472.5 0C513.08 -10.32 516.25 0 560 0C586.51 0 602.5 -19.02 613.03 0C641.27 50.98 651.84 77.06 637.54 140C625.33 193.73 599.13 186.97 560 233.33C540.04 256.97 541.71 258.69 519.35 280C471.71 325.41 471.74 366.76 420 366.76C361.67 366.76 319.7 337.3 299.22 280C279.18 223.92 307.3 204.04 338.95 140" stroke="rgba(51, 121, 194, 0.58)" stroke-width="2"></path><path d="M840 80C807.5 68.36 808.3 29.23 808.3 0C808.3 -10.77 824.15 0 840 0C910 0 910 0 980 0C1050 0 1050 0 1120 0C1190 0 1190 0 1260 0C1330 0 1330 0 1400 0C1458 0 1509.06 -29.15 1516 0C1525.73 40.85 1426.39 84.49 1433.33 140C1438.39 180.53 1509.36 151.87 1540 192.09C1562.69 221.87 1540 236.05 1540 280C1540 304.54 1554.57 329.09 1540 329.09C1509.57 329.09 1482.8 316.1 1450 280C1412.8 239.05 1421.78 175 1400 175C1379.28 175 1377.49 226.28 1365 280C1349.01 348.78 1359.79 351.4 1343.05 420C1325.63 491.4 1329.93 503.94 1296.67 560C1288.4 573.94 1278.34 560 1260 560C1240.26 560 1236.16 570.43 1220.51 560C1166.16 523.77 1170.46 513.12 1120 466.67C1094.41 443.12 1068.42 441.65 1068.42 420C1068.42 400.49 1100.12 407.88 1120 384.36C1159.28 337.88 1149.39 329.12 1186.74 280C1219.39 237.06 1216.73 231.27 1260 200.25C1314.39 161.27 1382.05 175.5 1382.05 140C1382.05 100.47 1324.12 54.17 1260 50.19C1193.09 46.03 1191.11 120.86 1120 123.72C1051.11 126.49 1052.85 72.84 980 61.46C912.85 50.98 893.35 99.09 840 80" stroke="rgba(51, 121, 194, 0.58)" stroke-width="2"></path><path d="M768.37 280C808.48 225.11 797.66 163.77 840 163.77C890.51 163.77 954.07 219.87 954.07 280C954.07 344.94 897.59 347.52 840 413.91C836.87 417.52 835.83 416.45 832.63 420C769.95 489.5 771.76 492.95 708.24 560C705.45 562.95 704.12 560 700 560C690 560 685.47 567.75 680 560C636.06 497.75 595.42 478.97 601.18 420C605.42 376.66 655.1 392.98 700 355.38C738.7 322.98 738.48 320.91 768.37 280" stroke="rgba(51, 121, 194, 0.58)" stroke-width="2"></path><path d="M0 362.17C20.71 362.17 66.59 383.38 68.21 420C70.97 482.29 41 493.81 8.75 560C6.89 563.81 0.26 564.12 0 560C-4.12 494.12 0 490 0 420C0 391.09 -13.39 362.17 0 362.17" stroke="rgba(51, 121, 194, 0.58)" stroke-width="2"></path><path d="M900.54 560C900.54 541.57 942.56 494.67 980 494.67C1012.29 494.67 1040 540.52 1040 560C1040 573.18 1010 560 980 560C940.27 560 900.54 574.24 900.54 560" stroke="rgba(51, 121, 194, 0.58)" stroke-width="2"></path><path d="M140 54.04C76.65 72.37 49.59 76.79 0 57.65C-20.41 49.77 -20.42 8.41 0 0C49.58 -20.42 70 0 140 0C169.62 0 199.23 -11.48 199.23 0C199.23 15.54 176.27 43.55 140 54.04" stroke="rgba(51, 121, 194, 0.58)" stroke-width="2"></path><path d="M385 140C392.51 113.34 397.92 112.58 420 94.92C485.42 42.58 515.51 -12.25 560 0C597.35 10.29 583.69 73.19 583.69 140C583.69 157.45 572.11 154.48 560 168.52C511.71 224.48 513.43 226.24 462.9 280C443.43 300.71 442.34 317.46 420 317.46C394.81 317.46 373.31 307.76 367.84 280C355.81 219.03 366.43 205.88 385 140" stroke="rgba(51, 121, 194, 0.58)" stroke-width="2"></path><path d="M1120 42.33C1074.3 42.33 1029 11.1 1029 0C1029 -10.06 1074.5 0 1120 0C1167.89 0 1215.79 -10.11 1215.79 0C1215.79 11.05 1167.69 42.33 1120 42.33" stroke="rgba(51, 121, 194, 0.58)" stroke-width="2"></path><path d="M1400 23.33C1375.45 23.33 1344 6.07 1344 0C1344 -5.6 1372 0 1400 0C1408 0 1416 -4.21 1416 0C1416 7.45 1411.45 23.33 1400 23.33" stroke="rgba(51, 121, 194, 0.58)" stroke-width="2"></path><path d="M809.07 280C809.07 254.43 821.72 229.81 840 229.81C861.81 229.81 889.26 254.04 889.26 280C889.26 308.05 861.52 337.83 840 337.83C821.42 337.83 809.07 308.44 809.07 280" stroke="rgba(51, 121, 194, 0.58)" stroke-width="2"></path><path d="M1227.44 280C1235.79 258.04 1242.14 244.56 1260 244.56C1281.75 244.56 1303.2 254.36 1306.67 280C1315.07 342.08 1299.89 351.32 1283.73 420C1276.56 450.49 1278.78 478.33 1260 478.33C1233.58 478.33 1199.53 457.75 1193.33 420C1183.25 358.59 1202.45 345.76 1227.44 280" stroke="rgba(51, 121, 194, 0.58)" stroke-width="2"></path><path d="M1533.33 280C1533.33 277.2 1538.04 273.49 1540 273.49C1541.37 273.49 1540 276.75 1540 280C1540 281.82 1541.08 283.64 1540 283.64C1537.75 283.64 1533.33 282.28 1533.33 280" stroke="rgba(51, 121, 194, 0.58)" stroke-width="2"></path><path d="M669.8 420C669.8 407.14 684.28 400.26 700 400.26C719.64 400.26 740.53 406.3 740.53 420C740.53 438.17 718.69 464 700 464C683.33 464 669.8 439.01 669.8 420" stroke="rgba(51, 121, 194, 0.58)" stroke-width="2"></path></g><defs><mask id="SvgjsMask1000"><rect width="1440" height="560" fill="#ffffff"></rect></mask></defs></svg>